# xmcd
#
# Track frame offsets:
#	150
#	18684
#	39206
#	61604
#	80074
#	110900
#	136492
#	150467
#	168312
#	179590
#	199349
#	218517
#
# Disc length: 3132 seconds
#
# Revision: 1
# Processed by: cddbd v1.5.2PL0 Copyright (c) Steve Scherf et al.
# Submitted via: audiograbber 1.83.01
#
DISCID=a30c3a0c
DTITLE=J.Sintoni - The Red Suit
DYEAR=2007
DGENRE=Blues
TTITLE0=Tired Of Keep Movin'
TTITLE1=Won't Be Back
TTITLE2=Forget The Time
TTITLE3=Changed And Better
TTITLE4=The Red Suit
TTITLE5=A Place To Feel Free
TTITLE6=Voodoo Woman
TTITLE7=Special Light
TTITLE8=Relaxin'
TTITLE9=What We Steal
TTITLE10=Out Of The Rain
TTITLE11=Swing Out This
EXTD=
EXTT0=
EXTT1=
EXTT2=
EXTT3=
EXTT4=
EXTT5=
EXTT6=
EXTT7=
EXTT8=
EXTT9=
EXTT10=
EXTT11=
PLAYORDER=
